<svg id="Layer_1" data-name="Layer 1" xmlns="http://www.w3.org/2000/svg" viewBox="0 0 279.07 77.15"><title>Boardwalk Corporate</title><path d="M4.6,70.89l-.2,5.19H0v-40H5.06V51.83A13.43,13.43,0,0,1,15.92,46.5c7.93,0,13.73,6.8,13.73,15.19s-5.8,15.19-13.73,15.19A13.45,13.45,0,0,1,4.6,70.89Zm20-9.2c0-6.93-4.46-11.12-9.92-11.12S4.73,54.76,4.73,61.69s4.46,11.13,9.93,11.13S24.58,68.62,24.58,61.69Z" transform="translate(0 0)"/><path d="M34.24,61.69A15.28,15.28,0,0,1,50,46.24a15.46,15.46,0,1,1,0,30.91A15.25,15.25,0,0,1,34.24,61.69Zm26.32,0c0-6.26-4.07-11.39-10.59-11.39S39.31,55.43,39.31,61.69,43.44,73.09,50,73.09,60.56,68,60.56,61.69Z" transform="translate(0 0)"/><path d="M70.22,61.69C70.22,53.3,76,46.5,83.94,46.5a13.47,13.47,0,0,1,11.33,6l.2-5.2h4.39V76.08H95.47l-.2-5.19a13.47,13.47,0,0,1-11.33,6C76,76.88,70.22,70.09,70.22,61.69Zm24.91,0c0-6.93-4.46-11.12-9.92-11.12s-9.93,4.19-9.93,11.12,4.46,11.13,9.93,11.13S95.13,68.62,95.13,61.69Z" transform="translate(0 0)"/><path d="M106.79,47.3h4.4l.33,5.53a13,13,0,0,1,11.19-6.33V52c-5.46-1-10.86,2.13-10.86,7V76.08h-5.06Z" transform="translate(0 0)"/><path d="M126.11,61.69c0-8.39,5.8-15.19,13.73-15.19a13.43,13.43,0,0,1,10.86,5.33V36.11h5.06v40h-4.4l-.2-5.19a13.45,13.45,0,0,1-11.32,6C131.91,76.88,126.11,70.09,126.11,61.69Zm24.92,0c0-6.93-4.47-11.12-9.93-11.12s-9.92,4.19-9.92,11.12,4.46,11.13,9.92,11.13S151,68.62,151,61.69Z" transform="translate(0 0)"/><path d="M159.09,47.3h5L172.28,69l8.19-21.65h3L191.73,69l8.13-21.65h4.73L193.27,76.15H190L181.87,55.3l-8.26,20.85h-3.19Z" transform="translate(0 0)"/><path d="M207.59,61.69c0-8.39,5.79-15.19,13.72-15.19a13.47,13.47,0,0,1,11.33,6l.2-5.2h4.39V76.08h-4.39l-.2-5.19a13.47,13.47,0,0,1-11.33,6C213.38,76.88,207.59,70.09,207.59,61.69Zm24.91,0c0-6.93-4.46-11.12-9.92-11.12s-9.93,4.19-9.93,11.12,4.47,11.13,9.93,11.13S232.5,68.62,232.5,61.69Z" transform="translate(0 0)"/><path d="M242.83,36.11h5.06v40h-5.06Z" transform="translate(0 0)"/><path d="M253.49,36.11h5.06V59.56L272.28,47.3h6.26L263.88,60.16l15.19,15.92h-6.59L258.55,61.16V76.08h-5.06Z" transform="translate(0 0)"/><path d="M142.13,34.92,78.25.1a.73.73,0,0,0-.73,0L13.64,34.92c-1,.53-.7,2.47.36,2.47H141.77c1,0,1.34-1.94.36-2.47m-9.2-.44H65.13L77,28.05a1.89,1.89,0,0,0,.67-2.18A1.17,1.17,0,0,0,76.05,25l-17.5,9.47h-7.5l26-14a1.89,1.89,0,0,0,.69-2.15h0c-.25-.84-1-1.25-1.6-.91L44.47,34.48H35.59l41.32-22a2.07,2.07,0,0,0,.79-2.2c-.2-.87-.88-1.3-1.52-1L28.93,34.48H23.08c-.47,0-.6-.87-.16-1.11l55-30,55.19,30.08c.39.22.28,1-.14,1" transform="translate(0 0)"/></svg>