<svg id="Layer_1" data-name="Layer 1" xmlns="http://www.w3.org/2000/svg" viewBox="0 0 279.34 120.8"><title>Boardwalk Lifestyle</title><path d="M139.79,120.22a.59.59,0,0,1-.12-.4.57.57,0,0,1,.28-.57,33.28,33.28,0,0,1,3.6-1.92,19.64,19.64,0,0,1,.81-5.47,84.15,84.15,0,0,1,3.1-9.53,97.89,97.89,0,0,1,4.42-10A35.44,35.44,0,0,1,156,85.78a.74.74,0,0,1,.49-.27,1,1,0,0,1,.52.19.74.74,0,0,1,0,1,35.32,35.32,0,0,0-3.89,6.35q-2.26,4.47-4.36,9.78a79,79,0,0,0-3.07,9.38,23.5,23.5,0,0,0-.74,4.45q3.9-1.82,8.26-3.41a57.58,57.58,0,0,1,8.16-2.44,18.51,18.51,0,0,1,2.53-.35,3.7,3.7,0,0,1,2.87.76.68.68,0,0,1,.17.45.76.76,0,0,1-.18.57.8.8,0,0,1-.45.17.76.76,0,0,1-.57-.19c-.18-.26-.77-.37-1.79-.34a19.07,19.07,0,0,0-2.33.29,53.67,53.67,0,0,0-8,2.44q-4.36,1.59-8.47,3.52h.05a.74.74,0,0,1,.42.34.66.66,0,0,1,.12.5.57.57,0,0,1-.24.36.68.68,0,0,1-.45.17H145a1.77,1.77,0,0,1-1-.77,21.65,21.65,0,0,0-3.14,1.69,1.83,1.83,0,0,1-.4.12.56.56,0,0,1-.57-.34"/><path d="M169.77,97.38a.88.88,0,0,1-.42-.32.59.59,0,0,1-.12-.48c.2-1.09,1.24-1.67,3.14-1.74.41,0,1,0,1.73,0a.77.77,0,0,1,.44.24.61.61,0,0,1,.2.4.71.71,0,0,1-.24.54.82.82,0,0,1-.55.25,10.09,10.09,0,0,0-1.63,0,3.91,3.91,0,0,0-1.11.14c-.41.12-.6.26-.6.43-.12.38-.33.57-.64.58a.26.26,0,0,1-.2,0m-2.49,13.73-.48-.39a2,2,0,0,1-.61-1.45,5.1,5.1,0,0,1,.39-2A21.76,21.76,0,0,1,168,104l.23-.52a.74.74,0,0,1,.19-.52,1,1,0,0,1,.55-.22.62.62,0,0,1,.41.14c.11,0,.19.13.27.29a.69.69,0,0,1,0,.56,1,1,0,0,1-.09.26l-.29.62c-.09.21-.3.64-.61,1.3a15.08,15.08,0,0,0-.75,1.86c-.36,1.06-.44,1.69-.23,1.89t.51,0a6,6,0,0,0,1.81-.58,27.15,27.15,0,0,0,3.49-1.91,67.92,67.92,0,0,0,5.75-4.08h0a1,1,0,0,1,.4-.17.68.68,0,0,1,.62.29.67.67,0,0,1,.12.35.8.8,0,0,1-.28.62,0,0,0,0,1-.05,0q-3.67,2.69-5.85,4.14a38.63,38.63,0,0,1-4.14,2.18,7.51,7.51,0,0,1-2,.54l-.81,0"/><path d="M184.93,91.88c-.85,1.9-1.62,3.76-2.34,5.58a36.15,36.15,0,0,0,2.34-5.58m-11.4,26.73a.64.64,0,0,1-.09-.45,8.48,8.48,0,0,1,2.27-4.67q1.08-2.38,1.79-4.42t1.75-5.63l.14-.52.45-1.64a62,62,0,0,1,3.28-8.72,24,24,0,0,1,2-4c.43-.58.78-.87,1.06-.88a.75.75,0,0,1,.56.18.71.71,0,0,1,.23.5,18.32,18.32,0,0,1-2.23,8,63.07,63.07,0,0,1-4.22,7.61c-.86,3.12-1.61,5.47-2.23,7a67.27,67.27,0,0,1,13.13-8.22l.3-.16a.7.7,0,0,1,.35-.12.64.64,0,0,1,.57.28.65.65,0,0,1-.12,1l-.44.27a81.58,81.58,0,0,0-9.24,5.33,32.1,32.1,0,0,0-6,5q-1.12,2.49-2.13,4.3a.77.77,0,0,1-.6.33h-.25a.85.85,0,0,1-.4-.29"/><path d="M193.88,102.64a5,5,0,0,0-.59.53l-.45.42a6.16,6.16,0,0,0,1-1m-2.93,6.8a2.54,2.54,0,0,1-.82-.81,2.63,2.63,0,0,1-.41-1.36,4.73,4.73,0,0,1,.53-2.26,9.19,9.19,0,0,1,1.89-2.69,5.22,5.22,0,0,1,2.23-1.53l.3-.06a1.15,1.15,0,0,1,.67.18,1.24,1.24,0,0,1,.35,1.1,4.51,4.51,0,0,1-1.23,2.06,8.67,8.67,0,0,1-3.1,2,4.13,4.13,0,0,0-.21,1.23,1.22,1.22,0,0,0,.18.65c.14.34.59.49,1.34.46q2-.07,5.74-2.14t6.84-4.18a1,1,0,0,1,.41-.12.68.68,0,0,1,.57.29.54.54,0,0,1,.16.4.61.61,0,0,1-.33.57l-1.94,1.27c-1,.67-2.12,1.34-3.28,2q-5.58,3.21-8.17,3.31h-.26a2.71,2.71,0,0,1-1.46-.38"/><path d="M203.24,109.62a.61.61,0,0,1-.17-.4.81.81,0,0,1,.24-.57.68.68,0,0,1,.45-.17.79.79,0,0,1,.57.23,1.85,1.85,0,0,0,1.6.5,4.78,4.78,0,0,0,2.36-.75,2.54,2.54,0,0,0,.76-.66,1.45,1.45,0,0,0,.35-1,2.18,2.18,0,0,0-.12-.45,2.82,2.82,0,0,0-.8-.91l-.68-.56a10.79,10.79,0,0,1-1.08-.88,2.34,2.34,0,0,1-.56-.84l-.35.21a.51.51,0,0,1-.4.17.57.57,0,0,1-.57-.28.76.76,0,0,1-.12-.4.57.57,0,0,1,.29-.57,14.78,14.78,0,0,1,1.73-1.24.78.78,0,0,1,.35-.11.73.73,0,0,1,.52.23.55.55,0,0,1,.17.4,1,1,0,0,1-.14.51c-.16.25-.22.42-.18.52s.4.6,1.16,1.18a10.61,10.61,0,0,1,1.19,1,4.32,4.32,0,0,1,.72,1,3,3,0,0,1,.29,1.11,2.35,2.35,0,0,1-.08.61A77.13,77.13,0,0,0,219,101.6a.8.8,0,0,1,.41-.12.81.81,0,0,1,.62.29.59.59,0,0,1,.12.4.57.57,0,0,1-.29.57q-4.89,3.75-7.9,5.63a13.52,13.52,0,0,1-5.14,2.18l-.86.08a3.2,3.2,0,0,1-2.74-1"/><path d="M218.89,108.83s-.17-.31-.5-1a3,3,0,0,1-.3-1.41,11.41,11.41,0,0,1,.48-3.27,5.75,5.75,0,0,1,.19-.57s-.06-.12-.06-.25a.69.69,0,0,1,.13-.42l.25-.36a37.43,37.43,0,0,1,1.49-3.72c-.82.1-1.36.15-1.63.16a3.89,3.89,0,0,1-1.22-.11.7.7,0,0,1-.4-.36.66.66,0,0,1,0-.53.67.67,0,0,1,.34-.4.61.61,0,0,1,.51,0,5.8,5.8,0,0,0,.76,0,18.17,18.17,0,0,0,2.33-.29q1.28-2.74,2.32-4.74t1.14-2.16a.63.63,0,0,1,.7-.33h.1a.66.66,0,0,1,.52.21.56.56,0,0,1,.17.48,14.35,14.35,0,0,1-1.72,5.86,36.72,36.72,0,0,0,6-1.85.81.81,0,0,1,.35-.12.55.55,0,0,1,.57.34,1,1,0,0,1,.12.35.74.74,0,0,1-.34.62,15.47,15.47,0,0,1-2.66,1c-1.3.4-2.62.75-3.93,1a7.79,7.79,0,0,1-1,.24,58,58,0,0,1-3.28,5l-.41,1.33a9.13,9.13,0,0,0-.45,2.82,1.54,1.54,0,0,0,.18.8.43.43,0,0,0,.47.29A5.81,5.81,0,0,0,222,107a38,38,0,0,0,4.47-2.15c1.33-.73,2.6-1.46,3.81-2.21s2.05-1.28,2.51-1.64a1,1,0,0,1,.4-.12.8.8,0,0,1,.63.28.85.85,0,0,1,.11.36.8.8,0,0,1-.28.62c-.6.43-1.51,1-2.73,1.78s-2.48,1.48-3.74,2.17c-3.32,1.82-5.61,2.76-6.87,2.8H220l-1.07-.11"/><path d="M230.52,120.71a.65.65,0,0,1-.38-.75,19.39,19.39,0,0,1,3.53-7.56,34.64,34.64,0,0,1,2.44-2.89q.6-1.55,1.46-4.58a10.67,10.67,0,0,1-2.54,1.62,4.63,4.63,0,0,1-1.61.42,2.19,2.19,0,0,1-1.49-.46,2,2,0,0,1-.72-1.55,6.23,6.23,0,0,1,1.44-3.71.66.66,0,0,1,.13-.44.73.73,0,0,1,.4-.25l.2,0a.67.67,0,0,1,.68.38.46.46,0,0,1,.11.35,1,1,0,0,1-.23.62l-.05,0a5.09,5.09,0,0,0-1.26,2.9.73.73,0,0,0,.22.6.8.8,0,0,0,.57.13,4.58,4.58,0,0,0,2-.78,13.86,13.86,0,0,0,2.76-2.4.63.63,0,0,1,.55-.22.69.69,0,0,1,.65.79,33.15,33.15,0,0,1-1.06,4.52l1.14-1a48.53,48.53,0,0,1,9-5.94l.2-.1a.75.75,0,0,1,.31-.07.7.7,0,0,1,.62.28.62.62,0,0,1,.12.41.76.76,0,0,1-.29.57l-.3.16a50,50,0,0,0-8.79,5.77,36.42,36.42,0,0,0-3.05,2.71,30.83,30.83,0,0,1-5.93,10.3.7.7,0,0,1-.5.22.5.5,0,0,1-.36-.09"/><path d="M254.1,92.56,255.18,90a53.68,53.68,0,0,0-3.42,6.64,44.76,44.76,0,0,0,2.34-4.11m-6.16,14.94a2.83,2.83,0,0,1-.41-1.52,14.62,14.62,0,0,1,.94-4.76l.09-.16a2.32,2.32,0,0,1,.23-.67,59.67,59.67,0,0,1,4.38-9.73,27.26,27.26,0,0,1,1.72-2.76,6.54,6.54,0,0,1,.88-1,.83.83,0,0,1,.81-.18.82.82,0,0,1,.53.64c.23.77-.32,2.64-1.67,5.61a41.79,41.79,0,0,1-5.63,8.71,19.23,19.23,0,0,0-.81,2.93,7.49,7.49,0,0,0-.1,1.27,1.8,1.8,0,0,0,.18.81.75.75,0,0,0,.47.24,6,6,0,0,0,1.81-.53,31.21,31.21,0,0,0,4.39-2.35c2-1.19,4-2.56,6.26-4.1a.59.59,0,0,1,.4-.12c.31,0,.49.07.57.24a.76.76,0,0,1,.12.4.79.79,0,0,1-.29.62c-2.38,1.65-4.5,3-6.35,4.16q-5,3-6.76,3.1h-.3a1.88,1.88,0,0,1-1.46-.91"/><path d="M264.09,100a7.27,7.27,0,0,0-.59.54l-.44.42a5.38,5.38,0,0,0,1-1m-2.92,6.81a2.75,2.75,0,0,1-.82-.81,2.54,2.54,0,0,1-.41-1.36,4.71,4.71,0,0,1,.53-2.26,9,9,0,0,1,1.88-2.69,5.34,5.34,0,0,1,2.24-1.54l.3-.06a1.17,1.17,0,0,1,.67.18,1.25,1.25,0,0,1,.34,1.11,4.36,4.36,0,0,1-1.22,2,8.55,8.55,0,0,1-3.1,2,4.12,4.12,0,0,0-.21,1.22,1.36,1.36,0,0,0,.17.66c.15.33.6.49,1.34.46,1.33,0,3.24-.76,5.75-2.15s4.79-2.77,6.84-4.17a1,1,0,0,1,.4-.12.63.63,0,0,1,.57.29.5.5,0,0,1,.17.4.62.62,0,0,1-.33.57l-1.94,1.27c-1,.66-2.12,1.34-3.28,2-3.72,2.14-6.45,3.24-8.17,3.3h-.26a2.69,2.69,0,0,1-1.46-.37"/><path d="M4.6,70.94l-.2,5.2H0v-40H5.07V51.87a13.42,13.42,0,0,1,10.87-5.34c7.93,0,13.73,6.81,13.73,15.21s-5.8,15.2-13.73,15.2A13.46,13.46,0,0,1,4.6,70.94Zm20-9.2c0-6.94-4.47-11.14-9.94-11.14S4.73,54.8,4.73,61.74,9.2,72.87,14.67,72.87,24.61,68.67,24.61,61.74Z"/><path d="M34.28,61.74A15.29,15.29,0,0,1,50,46.27a15.47,15.47,0,1,1,0,30.94A15.25,15.25,0,0,1,34.28,61.74Zm26.34,0c0-6.27-4.07-11.4-10.61-11.4s-10.67,5.13-10.67,11.4S43.48,73.14,50,73.14,60.62,68.07,60.62,61.74Z"/><path d="M70.28,61.74c0-8.4,5.81-15.21,13.74-15.21a13.46,13.46,0,0,1,11.34,6l.2-5.21H100V76.14h-4.4l-.2-5.2a13.46,13.46,0,0,1-11.34,6C76.09,76.94,70.28,70.14,70.28,61.74Zm24.94,0c0-6.94-4.46-11.14-9.93-11.14s-9.94,4.2-9.94,11.14,4.47,11.13,9.94,11.13S95.22,68.67,95.22,61.74Z"/><path d="M106.89,47.33h4.4l.34,5.54a12.93,12.93,0,0,1,11.2-6.34V52C117.36,51,112,54.14,112,59V76.14h-5.07Z"/><path d="M126.23,61.74c0-8.4,5.8-15.21,13.74-15.21a13.42,13.42,0,0,1,10.87,5.34V36.13h5.06v40h-4.4l-.2-5.2a13.45,13.45,0,0,1-11.33,6C132,76.94,126.23,70.14,126.23,61.74Zm24.94,0c0-6.94-4.47-11.14-9.94-11.14s-9.93,4.2-9.93,11.14,4.47,11.13,9.93,11.13S151.17,68.67,151.17,61.74Z"/><path d="M159.24,47.33h5L172.44,69l8.2-21.68h3L191.91,69l8.14-21.68h4.73L193.45,76.21h-3.27l-8.13-20.87-8.27,20.87h-3.2Z"/><path d="M207.78,61.74c0-8.4,5.81-15.21,13.74-15.21a13.46,13.46,0,0,1,11.34,6l.2-5.21h4.4V76.14h-4.4l-.2-5.2a13.46,13.46,0,0,1-11.34,6C213.59,76.94,207.78,70.14,207.78,61.74Zm24.94,0c0-6.94-4.46-11.14-9.93-11.14s-9.94,4.2-9.94,11.14,4.47,11.13,9.94,11.13S232.72,68.67,232.72,61.74Z"/><path d="M243.06,36.13h5.07v40h-5.07Z"/><path d="M253.73,36.13h5.07V59.6l13.73-12.27h6.27L264.13,60.2l15.21,15.94h-6.61L258.8,61.2V76.14h-5.07Z"/><path d="M142.26,35,78.32.1a.73.73,0,0,0-.73,0L13.65,35c-1,.54-.69,2.48.36,2.48H141.9c1.06,0,1.34-1.94.36-2.48m-9.21-.43H65.19l11.9-6.44a1.89,1.89,0,0,0,.67-2.18A1.17,1.17,0,0,0,76.12,25L58.61,34.52H51.1l26-14.07a1.88,1.88,0,0,0,.69-2.15h0c-.26-.85-1-1.25-1.61-.91L44.52,34.52H35.63L77,12.46a2.05,2.05,0,0,0,.79-2.2c-.2-.87-.88-1.31-1.52-1L29,34.52H23.11c-.48,0-.61-.88-.17-1.12l55-30L133.2,33.52c.39.22.28,1-.15,1"/></svg>
