<svg style="fill: #0072bc" class="Layer_1" data-name="Layer 1" xmlns="http://www.w3.org/2000/svg" viewBox="0 0 279.07 103.22"><title>Boardwalk Communities</title><path d="M4.6,70.86l-.2,5.19H0v-40H5.06V51.8a13.43,13.43,0,0,1,10.86-5.33c7.93,0,13.73,6.8,13.73,15.19s-5.8,15.19-13.73,15.19A13.45,13.45,0,0,1,4.6,70.86Zm20-9.2c0-6.93-4.46-11.12-9.92-11.12S4.73,54.73,4.73,61.66s4.46,11.13,9.93,11.13S24.58,68.59,24.58,61.66Z"/><path d="M34.24,61.66A15.28,15.28,0,0,1,50,46.21a15.46,15.46,0,1,1,0,30.91A15.25,15.25,0,0,1,34.24,61.66Zm26.32,0c0-6.26-4.07-11.39-10.59-11.39S39.31,55.4,39.31,61.66,43.44,73.05,50,73.05,60.56,68,60.56,61.66Z"/><path d="M70.22,61.66c0-8.39,5.79-15.19,13.72-15.19a13.45,13.45,0,0,1,11.33,6l.2-5.2h4.39V76.05H95.47l-.2-5.19a13.47,13.47,0,0,1-11.33,6C76,76.85,70.22,70.06,70.22,61.66Zm24.91,0c0-6.93-4.46-11.12-9.92-11.12s-9.93,4.19-9.93,11.12,4.46,11.13,9.93,11.13S95.13,68.59,95.13,61.66Z"/><path d="M106.79,47.27h4.4l.33,5.53a13,13,0,0,1,11.19-6.33v5.47c-5.46-1-10.86,2.13-10.86,7V76.05h-5.06Z"/><path d="M126.11,61.66c0-8.39,5.8-15.19,13.73-15.19A13.43,13.43,0,0,1,150.7,51.8V36.08h5.06v40h-4.4l-.2-5.19a13.45,13.45,0,0,1-11.32,6C131.91,76.85,126.11,70.06,126.11,61.66Zm24.92,0c0-6.93-4.47-11.12-9.93-11.12s-9.92,4.19-9.92,11.12,4.46,11.13,9.92,11.13S151,68.59,151,61.66Z"/><path d="M159.09,47.27h5l8.19,21.65,8.19-21.65h3l8.26,21.65,8.13-21.65h4.73L193.27,76.12H190l-8.13-20.85-8.26,20.85h-3.19Z"/><path d="M207.59,61.66c0-8.39,5.79-15.19,13.72-15.19a13.45,13.45,0,0,1,11.33,6l.2-5.2h4.39V76.05h-4.39l-.2-5.19a13.47,13.47,0,0,1-11.33,6C213.38,76.85,207.59,70.06,207.59,61.66Zm24.91,0c0-6.93-4.46-11.12-9.92-11.12s-9.93,4.19-9.93,11.12,4.47,11.13,9.93,11.13S232.5,68.59,232.5,61.66Z"/><path d="M242.83,36.08h5.06v40h-5.06Z"/><path d="M253.49,36.08h5.06V59.53l13.73-12.26h6.26L263.88,60.13l15.19,15.92h-6.59L258.55,61.13V76.05h-5.06Z"/><path d="M142.13,34.92,78.25.1a.73.73,0,0,0-.73,0L13.64,34.92c-1,.53-.7,2.47.36,2.47H141.77c1,0,1.34-1.94.36-2.47m-9.2-.44H65.13L77,28.05a1.89,1.89,0,0,0,.67-2.18A1.17,1.17,0,0,0,76.05,25l-17.5,9.47h-7.5l26-14a1.89,1.89,0,0,0,.69-2.15h0c-.25-.84-1-1.25-1.6-.91L44.47,34.48H35.59l41.32-22a2.07,2.07,0,0,0,.79-2.2c-.2-.87-.88-1.3-1.52-1L28.93,34.48H23.08c-.47,0-.6-.87-.16-1.11l55-30,55.19,30.08c.39.22.28,1-.14,1"/><path d="M126.09,96.3a6.49,6.49,0,0,1,6.72-6.81,7.3,7.3,0,0,1,4.51,1.31v2.06a6.23,6.23,0,0,0-4.3-1.52,4.63,4.63,0,0,0-4.66,5c0,2.89,1.88,5,4.66,5a6.23,6.23,0,0,0,4.3-1.52v2.06a7.24,7.24,0,0,1-4.51,1.31A6.48,6.48,0,0,1,126.09,96.3Z"/><path d="M139.35,96.3a7,7,0,1,1,7,6.92A6.85,6.85,0,0,1,139.35,96.3Zm11.79,0c0-2.81-1.82-5.11-4.75-5.11s-4.77,2.3-4.77,5.11,1.85,5.1,4.77,5.1S151.14,99.13,151.14,96.3Z"/><path d="M156.22,89.85h2l.15,2.48a5.69,5.69,0,0,1,4.74-2.84,3.76,3.76,0,0,1,4.09,3,6.16,6.16,0,0,1,4.93-3c3.43,0,4.36,2.39,4.36,5.58v7.68h-2.27v-7.5c0-2.83-.87-3.82-2.75-3.82a4,4,0,0,0-4,3.7v7.62H165.2v-7.5c0-2.83-.86-3.82-2.74-3.82a4,4,0,0,0-4,3.7v7.62h-2.27Z"/><path d="M180.13,89.85h2l.15,2.48A5.72,5.72,0,0,1,187,89.49a3.77,3.77,0,0,1,4.09,3,6.13,6.13,0,0,1,4.92-3c3.44,0,4.36,2.39,4.36,5.58v7.68H198.1v-7.5c0-2.83-.86-3.82-2.74-3.82a4,4,0,0,0-4,3.7v7.62h-2.27v-7.5c0-2.83-.87-3.82-2.75-3.82a4,4,0,0,0-4,3.7v7.62h-2.27Z"/><path d="M204,97.52V89.85h2.27v7.46c0,2.9,1.13,3.85,3,3.85s4.24-1.61,4.24-3.7V89.85h2.27v12.9h-2l-.15-2.48a6.08,6.08,0,0,1-5,2.83C205.24,103.1,204,100.72,204,97.52Z"/><path d="M219.51,89.85h2l.15,2.48a6,6,0,0,1,5-2.84c3.43,0,4.65,2.39,4.65,5.58v7.68H229V95.28c0-2.89-1.14-3.85-3-3.85s-4.24,1.61-4.24,3.7v7.62h-2.27Z"/><path d="M235,84.83h2.27v2.48H235Zm0,5h2.27v12.9H235Z"/><path d="M242.5,91.4h-2.89V89.85h2.89V86.33h2.27v3.52h2.93V91.4h-2.93v11.35H242.5Z"/><path d="M250.05,84.83h2.27v2.48h-2.27Zm0,5h2.27v12.9h-2.27Z"/><path d="M255.31,96.21a6.39,6.39,0,0,1,6.24-6.72c3.22,0,5.49,2.09,5.49,5a8.2,8.2,0,0,1-.18,1.46h-9.31c-.18,2.27.89,5.28,5,5.28a6.65,6.65,0,0,0,4.24-1.67v2a8.22,8.22,0,0,1-5,1.52C258,103.1,255.31,100.21,255.31,96.21Zm9.55-1.82c.27-1.73-1.1-3.11-3.22-3.11a3.7,3.7,0,0,0-3.88,3.11Z"/><path d="M269.28,101.79l.45-1.79a8.73,8.73,0,0,0,4.39,1.34c1.61,0,2.86-.57,2.86-2,0-1.13-1.16-1.76-3.28-2.3-2.75-.68-4-2.15-4-3.82,0-2,1.55-3.76,4.72-3.76a8.91,8.91,0,0,1,4,1.08L278,92.27a6.81,6.81,0,0,0-3.55-1c-1.76,0-2.63.66-2.63,1.7s1.07,1.77,2.78,2.18c2.95.72,4.5,2.06,4.5,3.76,0,2.72-2.06,4.27-5,4.27A9.35,9.35,0,0,1,269.28,101.79Z"/></svg>