<svg style="fill: #01426a" class="Layer_1" data-name="Layer 1" xmlns="http://www.w3.org/2000/svg" viewBox="0 0 279.34 112.8"><title>Boardwalk Living</title><path d="M193.52,83.59h2.53v19.16c0,.9.21,1.38.81,1.38a3.12,3.12,0,0,0,.87-.15l.37,1.87a5.15,5.15,0,0,1-2,.39c-1.35,0-2.59-.51-2.59-3.37Z"/><path d="M203.3,85.79a1.39,1.39,0,0,1,1.47-1.45,1.46,1.46,0,0,1,1.48,1.48,1.39,1.39,0,0,1-1.48,1.41A1.41,1.41,0,0,1,203.3,85.79Zm.21,4.24H206v12.72c0,.9.21,1.38.81,1.38a2.92,2.92,0,0,0,.84-.15l.39,1.87a4.58,4.58,0,0,1-2,.39c-1.36,0-2.59-.51-2.59-3.37Z"/><path d="M210.12,90h2.74l6.08,13.2L225.25,90H228l-8,15.88h-2Z"/><path d="M231.63,85.79a1.39,1.39,0,0,1,1.47-1.45,1.46,1.46,0,0,1,1.48,1.48,1.39,1.39,0,0,1-1.48,1.41A1.41,1.41,0,0,1,231.63,85.79Zm.21,4.24h2.53v12.72c0,.9.21,1.38.81,1.38A2.92,2.92,0,0,0,236,104l.39,1.87a4.58,4.58,0,0,1-2,.39c-1.36,0-2.59-.51-2.59-3.37Z"/><path d="M240.74,105.91V90h2.53v2.34c1-1.44,3.19-2.7,6.26-2.7,5.59,0,7.15,3,7.15,6.88v9.36h-2.52V96.8c0-2.65-.9-5.18-5-5.18a6.21,6.21,0,0,0-5.86,3.58v10.71Z"/><path d="M276.6,104.29V103.2a7.63,7.63,0,0,1-6.41,3c-6,0-9.18-3.79-9.18-8.54,0-4.57,3.1-8,8.58-8a8.62,8.62,0,0,1,7,3.19V90h2.52v14.22c0,5.66-3.55,8.55-9.2,8.55a17.18,17.18,0,0,1-9-2.14l.76-2a15.23,15.23,0,0,0,7.82,2C273.65,110.69,276.6,108.5,276.6,104.29Zm-12.88-6.35a6.43,6.43,0,1,0,6.41-6.29A6.07,6.07,0,0,0,263.72,97.94Z"/><path d="M4.6,70.94l-.2,5.2H0v-40H5.07V51.87a13.42,13.42,0,0,1,10.87-5.34c7.93,0,13.73,6.81,13.73,15.21s-5.8,15.2-13.73,15.2A13.46,13.46,0,0,1,4.6,70.94Zm20-9.2c0-6.94-4.47-11.14-9.94-11.14S4.73,54.8,4.73,61.74,9.2,72.87,14.67,72.87,24.61,68.67,24.61,61.74Z"/><path d="M34.28,61.74A15.29,15.29,0,0,1,50,46.27a15.47,15.47,0,1,1,0,30.94A15.25,15.25,0,0,1,34.28,61.74Zm26.34,0c0-6.27-4.07-11.4-10.61-11.4s-10.67,5.13-10.67,11.4S43.48,73.14,50,73.14,60.62,68.07,60.62,61.74Z"/><path d="M70.28,61.74c0-8.4,5.81-15.21,13.74-15.21a13.46,13.46,0,0,1,11.34,6l.2-5.21H100V76.14h-4.4l-.2-5.2a13.46,13.46,0,0,1-11.34,6C76.09,76.94,70.28,70.14,70.28,61.74Zm24.94,0c0-6.94-4.46-11.14-9.93-11.14s-9.94,4.2-9.94,11.14,4.47,11.13,9.94,11.13S95.22,68.67,95.22,61.74Z"/><path d="M106.89,47.33h4.4l.34,5.54a12.93,12.93,0,0,1,11.2-6.34V52C117.36,51,112,54.14,112,59V76.14h-5.07Z"/><path d="M126.23,61.74c0-8.4,5.8-15.21,13.74-15.21a13.42,13.42,0,0,1,10.87,5.34V36.13h5.06v40h-4.4l-.2-5.2a13.45,13.45,0,0,1-11.33,6C132,76.94,126.23,70.14,126.23,61.74Zm24.94,0c0-6.94-4.47-11.14-9.94-11.14s-9.93,4.2-9.93,11.14,4.47,11.13,9.93,11.13S151.17,68.67,151.17,61.74Z"/><path d="M159.24,47.33h5L172.44,69l8.2-21.68h3L191.91,69l8.14-21.68h4.73L193.45,76.21h-3.27l-8.13-20.87-8.27,20.87h-3.2Z"/><path d="M207.78,61.74c0-8.4,5.81-15.21,13.74-15.21a13.46,13.46,0,0,1,11.34,6l.2-5.21h4.4V76.14h-4.4l-.2-5.2a13.46,13.46,0,0,1-11.34,6C213.59,76.94,207.78,70.14,207.78,61.74Zm24.94,0c0-6.94-4.46-11.14-9.93-11.14s-9.94,4.2-9.94,11.14,4.47,11.13,9.94,11.13S232.72,68.67,232.72,61.74Z"/><path d="M243.06,36.13h5.07v40h-5.07Z"/><path d="M253.73,36.13h5.07V59.6l13.73-12.27h6.27L264.13,60.2l15.21,15.94h-6.61L258.8,61.2V76.14h-5.07Z"/><path d="M142.26,35,78.32.1a.73.73,0,0,0-.73,0L13.65,35c-1,.54-.69,2.48.36,2.48H141.9c1.06,0,1.34-1.94.36-2.48m-9.21-.43H65.19l11.9-6.44a1.89,1.89,0,0,0,.67-2.18A1.17,1.17,0,0,0,76.12,25L58.61,34.52H51.1l26-14.07a1.88,1.88,0,0,0,.69-2.15h0c-.26-.85-1-1.25-1.61-.91L44.52,34.52H35.63L77,12.46a2.05,2.05,0,0,0,.79-2.2c-.2-.87-.88-1.31-1.52-1L29,34.52H23.11c-.48,0-.61-.88-.17-1.12l55-30L133.2,33.52c.39.22.28,1-.15,1"/></svg>